# xmcd
#
# Track frame offsets:
#	180
#	21741
#	36207
#	50816
#	81701
#	95892
#	110933
#	127618
#	143604
#	162594
#	181307
#	195489
#	210617
#
# Disc length: 2975 seconds
#
# Revision: 1
# Processed by: cddbd v1.5.2PL0 Copyright (c) Steve Scherf et al.
# Submitted via: audiograbber 1.83.01
#
DISCID=c60b9d0d
DTITLE=Kentucky Riders - Honky Tonkin' On a Saturday Night
DYEAR=1994
DGENRE=Country
TTITLE0=Honky Tonkin' On a Saturday Night
TTITLE1=Long Haired Country Boy
TTITLE2=Don't You See That Ring (On My Finger)
TTITLE3=Betsy and Ike
TTITLE4=Old Bluegrass Picker
TTITLE5=Indian's Pray
TTITLE6=Backbone of America
TTITLE7=Highway
TTITLE8=Tackroom Cowboy
TTITLE9=Lifetimes Lie
TTITLE10=Little Tavern
TTITLE11=I Fight for Dixie
TTITLE12=(ohne Titel)
EXTD=
EXTT0=
EXTT1=
EXTT2=
EXTT3=
EXTT4=
EXTT5=
EXTT6=
EXTT7=
EXTT8=
EXTT9=
EXTT10=
EXTT11=
EXTT12=
PLAYORDER=
